<?xml version="1.0" encoding="utf-8"?>
<!-- Generator: Adobe Illustrator 17.1.0, SVG Export Plug-In . SVG Version: 6.00 Build 0)  -->
<!DOCTYPE svg PUBLIC "-//W3C//DTD SVG 1.1//EN" "http://www.w3.org/Graphics/SVG/1.1/DTD/svg11.dtd">
<svg version="1.1" id="Слой_1" xmlns="http://www.w3.org/2000/svg" xmlns:xlink="http://www.w3.org/1999/xlink" x="0px" y="0px"
	 viewBox="0 0 121 121" enable-background="new 0 0 121 121" xml:space="preserve">
<g>
	<linearGradient id="SVGID_1_" gradientUnits="userSpaceOnUse" x1="60.5156" y1="118.7871" x2="60.5156" y2="2.2442">
		<stop  offset="0" style="stop-color:#94B11F"/>
		<stop  offset="1" style="stop-color:#C4DB00"/>
	</linearGradient>
	<path fill="url(#SVGID_1_)" d="M2.2,60.5c0-32.2,26.1-58.3,58.3-58.3c32.2,0,58.3,26.1,58.3,58.3c0,32.2-26.1,58.3-58.3,58.3
		C28.3,118.8,2.2,92.7,2.2,60.5L2.2,60.5z M2.2,60.5"/>
	<linearGradient id="SVGID_2_" gradientUnits="userSpaceOnUse" x1="60.5156" y1="121.0313" x2="60.5156" y2="7.467270e-005">
		<stop  offset="0" style="stop-color:#94B11F"/>
		<stop  offset="1" style="stop-color:#C4DB00"/>
	</linearGradient>
	<path fill="url(#SVGID_2_)" d="M121,60.5c0,33.4-27.1,60.5-60.5,60.5C27.2,121,0,93.9,0,60.5C0,27.2,27.2,0,60.5,0
		C93.9,0,121,27.2,121,60.5L121,60.5z M4.5,60.5c0,30.9,25.1,56,56,56c30.9,0,56-25.1,56-56c0-30.9-25.1-56-56-56
		C29.6,4.5,4.5,29.6,4.5,60.5L4.5,60.5z M4.5,60.5"/>
	<path fill="#FFFFFF" d="M89.7,71.1c0,0.6-0.2,1.1-0.7,1.6c-0.9,0.9-2.3,0.9-3.2,0L60.5,47.3L35.2,72.6c-0.9,0.9-2.3,0.9-3.2,0
		c-0.9-0.9-0.9-2.3,0-3.2l25.8-25.8c1.5-1.5,3.9-1.5,5.4,0L89,69.5C89.4,69.9,89.7,70.5,89.7,71.1L89.7,71.1z M89.7,71.1"/>
</g>
</svg>
