<?xml version="1.0" encoding="utf-8"?>
<!DOCTYPE svg PUBLIC "-//W3C//DTD SVG 1.1//EN" "http://www.w3.org/Graphics/SVG/1.1/DTD/svg11.dtd">
<svg version="1.1" id="Слой_1" xmlns="http://www.w3.org/2000/svg" xmlns:xlink="http://www.w3.org/1999/xlink" x="0px" y="0px"
	 viewBox="0 0 96 96" enable-background="new 0 0 96 96" xml:space="preserve">
<path fill="#878787" d="M94.2,48c0,25.5-20.7,46.2-46.2,46.2C22.5,94.2,1.8,73.5,1.8,48C1.8,22.5,22.5,1.8,48,1.8
	C73.5,1.8,94.2,22.5,94.2,48L94.2,48z M94.2,48"/>
<path fill="#878787" d="M96,48c0,26.5-21.5,48-48,48C21.5,96,0,74.5,0,48C0,21.5,21.5,0,48,0C74.5,0,96,21.5,96,48L96,48z M3.6,48
	c0,24.5,19.9,44.4,44.4,44.4c24.5,0,44.4-19.9,44.4-44.4C92.4,23.5,72.5,3.5,48,3.5C23.5,3.5,3.6,23.5,3.6,48L3.6,48z M3.6,48"/>
<path fill="#FFFFFF" d="M71.1,56.4c0,0.5-0.2,0.9-0.5,1.3c-0.7,0.7-1.8,0.7-2.5,0L48,37.5L27.9,57.6c-0.7,0.7-1.8,0.7-2.5,0
	c-0.7-0.7-0.7-1.8,0-2.5l20.4-20.4c1.2-1.2,3.1-1.2,4.3,0l20.4,20.4C70.9,55.5,71.1,55.9,71.1,56.4L71.1,56.4z M71.1,56.4"/>
</svg>
