<svg version="1.1" xmlns="http://www.w3.org/2000/svg" xmlns:xlink="http://www.w3.org/1999/xlink" x="0px" y="0px" viewBox="0 0 30 30" enable-background="new 0 0 30 30" xml:space="preserve">
<path fill="#6F3FAA" d="M30,15c0,8.3-6.7,15-15,15C6.7,30,0,23.3,0,15C0,6.7,6.7,0,15,0C23.3,0,30,6.7,30,15L30,15z M30,15"/>
<path fill="#FFFFFF" d="M22.9,10.5L22.9,10.5c-0.4-1.6-2.2-3.4-3.9-3.7l0,0c-2.7-0.5-5.4-0.5-8.1,0l0,0c-1.7,0.4-3.5,2.1-3.9,3.7
	l0,0c-0.5,2.3-0.5,4.6,0,6.8l0,0c0.4,1.6,2.1,3.2,3.7,3.7v1.8c0,0.7,0.8,1,1.3,0.5l1.8-1.9c0.4,0,0.8,0,1.2,0c1.4,0,2.7-0.1,4-0.4
	l0,0c1.7-0.4,3.5-2.1,3.9-3.7l0,0C23.4,15.1,23.4,12.8,22.9,10.5L22.9,10.5z M21.5,17c-0.3,1.1-1.6,2.4-2.7,2.6
	c-1.4,0.3-2.9,0.4-4.3,0.3c0,0-0.1,0-0.1,0c-0.2,0.2-1.3,1.4-1.3,1.4l-1.4,1.5c-0.1,0.1-0.3,0-0.3-0.1v-3c0,0,0-0.1-0.1-0.1
	c0,0,0,0,0,0c-1.1-0.2-2.5-1.6-2.7-2.6c-0.4-2-0.4-4.1,0-6.2c0.3-1.1,1.6-2.4,2.7-2.6c2.5-0.5,5-0.5,7.5,0c1.1,0.2,2.5,1.6,2.7,2.6
	C21.9,12.9,21.9,15,21.5,17L21.5,17z M21.5,17"/>
<path fill="#FFFFFF" d="M17.4,18.4c-0.2-0.1-0.3-0.1-0.5-0.1c-1.5-0.6-3-1.5-4.1-2.7c-0.6-0.7-1.1-1.5-1.6-2.4
	c-0.2-0.4-0.4-0.8-0.5-1.2c-0.2-0.4,0.1-0.8,0.3-1.1c0.2-0.3,0.5-0.5,0.8-0.6c0.2-0.1,0.5-0.1,0.7,0.2c0.4,0.5,0.8,0.9,1,1.5
	c0.2,0.3,0.1,0.7-0.2,0.9c-0.1,0.1-0.2,0.1-0.2,0.2c-0.1,0.1-0.1,0.1-0.2,0.2c-0.1,0.1-0.1,0.3,0,0.4c0.4,1.1,1.1,2,2.2,2.4
	c0.2,0.1,0.4,0.2,0.6,0.1c0.3,0,0.5-0.4,0.7-0.6c0.2-0.2,0.5-0.2,0.8,0c0.3,0.2,0.5,0.3,0.7,0.5c0.2,0.2,0.5,0.3,0.7,0.5
	c0.2,0.2,0.3,0.4,0.2,0.7c-0.2,0.5-0.5,0.8-1,1.1C17.7,18.4,17.5,18.4,17.4,18.4C17.2,18.4,17.5,18.4,17.4,18.4L17.4,18.4z
	 M17.4,18.4"/>
<path fill="#FFFFFF" d="M15,9.7c2,0.1,3.7,1.4,4,3.4c0.1,0.3,0.1,0.7,0.1,1c0,0.1-0.1,0.3-0.2,0.3c-0.2,0-0.2-0.1-0.2-0.3
	c0-0.3,0-0.6-0.1-0.9c-0.2-1.5-1.4-2.7-2.9-3c-0.2,0-0.5-0.1-0.7-0.1c-0.1,0-0.3,0-0.4-0.2c0-0.1,0.1-0.3,0.2-0.3
	C14.9,9.7,15,9.7,15,9.7C17,9.7,15,9.7,15,9.7L15,9.7z M15,9.7"/>
<path fill="#FFFFFF" d="M18.1,13.7c0,0,0,0.1,0,0.1c-0.1,0.2-0.4,0.2-0.4,0c0-0.1,0-0.1,0-0.2c0-0.4-0.1-0.9-0.3-1.2
	c-0.2-0.4-0.6-0.7-1-0.9c-0.2-0.1-0.5-0.2-0.8-0.2c-0.1,0-0.2,0-0.3,0c-0.1,0-0.2-0.1-0.2-0.2c0-0.1,0.1-0.2,0.2-0.2
	c0.5,0,0.9,0.1,1.3,0.3c0.8,0.4,1.3,1.1,1.4,2.1c0,0,0,0.1,0,0.1C18,13.4,18.1,13.5,18.1,13.7C18.1,13.7,18.1,13.5,18.1,13.7
	L18.1,13.7z M18.1,13.7"/>
<path fill="#FFFFFF" d="M16.8,13.6c-0.2,0-0.3-0.1-0.3-0.2c0-0.1,0-0.2,0-0.3c-0.1-0.2-0.2-0.4-0.3-0.5c-0.1-0.1-0.2-0.1-0.3-0.1
	c-0.1,0-0.3,0-0.4-0.1c-0.1,0-0.2-0.1-0.2-0.3c0-0.1,0.1-0.2,0.3-0.2c0.8,0.1,1.3,0.5,1.4,1.4c0,0.1,0,0.1,0,0.2
	C17,13.5,16.9,13.6,16.8,13.6C16.6,13.6,16.9,13.6,16.8,13.6L16.8,13.6z M16.8,13.6"/>
<path fill="#FFFFFF" d="M17.4,18.4C17.5,18.4,17.2,18.4,17.4,18.4L17.4,18.4z M17.4,18.4"/>
<path fill="#FFFFFF" d="M15,9.7C15,9.7,15,9.7,15,9.7C15.1,9.7,16.9,9.7,15,9.7L15,9.7z M15,9.7"/>
<path fill="#FFFFFF" d="M18.1,13.7C18.1,13.5,18.1,13.7,18.1,13.7L18.1,13.7z M18.1,13.7"/>
<path fill="#FFFFFF" d="M16.8,13.6C16.8,13.6,16.8,13.6,16.8,13.6C16.8,13.6,16.8,13.6,16.8,13.6C16.8,13.6,16.8,13.6,16.8,13.6
	L16.8,13.6z M16.8,13.6"/>
<path fill="#FFFFFF" d="M16.8,13.6C16.8,13.6,16.8,13.6,16.8,13.6C16.8,13.6,16.7,13.6,16.8,13.6L16.8,13.6z M16.8,13.6"/>
<path fill="#FFFFFF" d="M16.8,13.6C16.8,13.6,16.8,13.6,16.8,13.6C16.8,13.6,16.8,13.6,16.8,13.6L16.8,13.6z M16.8,13.6"/>
</svg>
