<?xml version="1.0" encoding="utf-8"?>
<!-- Generator: Adobe Illustrator 17.1.0, SVG Export Plug-In . SVG Version: 6.00 Build 0)  -->
<!DOCTYPE svg PUBLIC "-//W3C//DTD SVG 1.1//EN" "http://www.w3.org/Graphics/SVG/1.1/DTD/svg11.dtd">
<svg version="1.1" id="Слой_1" xmlns="http://www.w3.org/2000/svg" xmlns:xlink="http://www.w3.org/1999/xlink" x="0px" y="0px"
	 viewBox="0 0 30 30" enable-background="new 0 0 30 30" xml:space="preserve">
<path fill="#75B73B" d="M30,15c0,8.3-6.7,15-15,15C6.7,30,0,23.3,0,15C0,6.7,6.7,0,15,0C23.3,0,30,6.7,30,15L30,15z M30,15"/>
<path fill="#FFFFFF" d="M14.6,6.4c-4.6,0.2-8.2,4-8.2,8.6c0,1.4,0.3,2.7,0.9,3.9l-0.9,4.4c0,0.2,0.2,0.4,0.4,0.4l4.3-1
	c1.1,0.6,2.4,0.9,3.7,0.9c4.7,0.1,8.6-3.6,8.7-8.3C23.7,10.2,19.6,6.1,14.6,6.4L14.6,6.4z M19.8,19.7c-1.3,1.3-3,2-4.8,2
	c-1.1,0-2.1-0.2-3-0.7l-0.6-0.3l-2.7,0.6l0.6-2.7L9,18c-0.5-0.9-0.7-2-0.7-3.1c0-1.8,0.7-3.5,2-4.8c1.3-1.3,3-2,4.8-2
	c1.8,0,3.5,0.7,4.8,2c1.3,1.3,2,3,2,4.8C21.7,16.7,21,18.4,19.8,19.7L19.8,19.7z M19.8,19.7"/>
<path fill="#FFFFFF" d="M19.2,16.8l-1.7-0.5c-0.2-0.1-0.5,0-0.6,0.2l-0.4,0.4c-0.2,0.2-0.4,0.2-0.7,0.1c-0.8-0.3-2.4-1.8-2.9-2.5
	c-0.1-0.2-0.1-0.5,0-0.7l0.4-0.5c0.1-0.2,0.2-0.4,0.1-0.6l-0.7-1.6c-0.2-0.4-0.7-0.5-1-0.2c-0.5,0.4-1,1-1.1,1.6
	c-0.1,1.2,0.4,2.6,2.3,4.4c2.2,2,3.9,2.3,5.1,2c0.6-0.2,1.2-0.8,1.5-1.3C19.7,17.4,19.6,16.9,19.2,16.8L19.2,16.8z M19.2,16.8"/>
</svg>
