<?xml version="1.0" encoding="utf-8"?>
<!-- Generator: Adobe Illustrator 17.1.0, SVG Export Plug-In . SVG Version: 6.00 Build 0)  -->
<!DOCTYPE svg PUBLIC "-//W3C//DTD SVG 1.1//EN" "http://www.w3.org/Graphics/SVG/1.1/DTD/svg11.dtd">
<svg version="1.1" id="Слой_1" xmlns="http://www.w3.org/2000/svg" xmlns:xlink="http://www.w3.org/1999/xlink" x="0px" y="0px"
	 viewBox="0 0 90.3 93.4" enable-background="new 0 0 90.3 93.4" xml:space="preserve">
<g>
	<path id="XMLID_54_" opacity="0.12" fill="#F797A3" d="M48.7,22.9c-5.4-5.8-9.9-3-9,2.7c0.9,5.6,9.1,10.7,9.1,10.7
		s8.1-5.3,8.9-10.9C58.5,19.8,54,17,48.7,22.9z"/>
	<g id="XMLID_51_" opacity="0.12">
		<path id="XMLID_53_" fill="#C6C6C6" d="M62.6,43c0,1,0.8,1.8,1.8,1.8c1,0,1.8-0.8,1.8-1.8c0-7.4,1-27.9,11.8-36.1V2.7
			C68.2,8.4,62.6,22.6,62.6,43z"/>
		<path id="XMLID_52_" fill="#C6C6C6" d="M90.3,1.8c0-1-0.8-1.8-1.8-1.8C84.6,0,81.1,0.9,78,2.7v4.2c2.8-2.1,6.3-3.4,10.5-3.4
			C89.5,3.5,90.3,2.7,90.3,1.8z"/>
	</g>
	
		<path id="XMLID_50_" opacity="0.12" fill="none" stroke="#C6C6C6" stroke-linecap="round" stroke-linejoin="round" stroke-miterlimit="10" d="
		M0.5,43c2.5,20.4,18,32.3,36.9,32.3c18.9,0,34.4-11.9,36.9-32.3H0.5z"/>
	
		<path id="XMLID_49_" opacity="0.12" fill="none" stroke="#C6C6C6" stroke-linecap="round" stroke-linejoin="round" stroke-miterlimit="10" d="
		M18.3,10.8L33,43c-6.3-18.4,4.4-36.8,4.4-36.8C30.7,12,18.3,10.8,18.3,10.8z"/>
	
		<path id="XMLID_48_" opacity="0.12" fill="none" stroke="#C6C6C6" stroke-linecap="round" stroke-linejoin="round" stroke-miterlimit="10" d="
		M18.3,10.8c-1.5,5.3-4.7,9.7-13.4,12.8L33,43L18.3,10.8z"/>
	
		<path id="XMLID_47_" opacity="0.12" fill="none" stroke="#C6C6C6" stroke-linecap="round" stroke-linejoin="round" stroke-miterlimit="10" d="
		M33,43L5,23.6C6.3,28,5.7,35.9,0.5,43H33z"/>
	
		<line id="XMLID_46_" opacity="0.12" fill="none" stroke="#F9CAD1" stroke-miterlimit="10" stroke-dasharray="1" x1="1.7" y1="46.7" x2="73.3" y2="46.7"/>
	
		<line id="XMLID_45_" opacity="0.12" fill="none" stroke="#F9CAD1" stroke-miterlimit="10" stroke-dasharray="1" x1="5.9" y1="25.1" x2="31.9" y2="43"/>
	
		<line id="XMLID_44_" opacity="0.12" fill="none" stroke="#F9CAD1" stroke-miterlimit="10" stroke-dasharray="1" x1="18.3" y1="12.1" x2="31.9" y2="41.6"/>
	<path id="XMLID_43_" opacity="0.12" fill="none" stroke="#F9CAD1" stroke-miterlimit="10" stroke-dasharray="1" d="M35.9,7.9
		c-7.5,11.6-6.8,26.5-4.8,30.8"/>
	<circle id="XMLID_42_" opacity="0.12" fill="#EDEDED" cx="18.3" cy="78" r="14.6"/>
	<path id="XMLID_39_" opacity="0.12" fill="#C6C6C6" d="M33.7,78c0-8.5-6.9-15.4-15.4-15.4S3,69.6,3,78c0,8.5,6.9,15.4,15.4,15.4
		S33.7,86.5,33.7,78z M32.2,78C32.2,85.7,26,92,18.3,92C10.7,92,4.4,85.7,4.4,78c0-7.7,6.2-13.9,13.9-13.9
		C26,64.1,32.2,70.4,32.2,78z"/>
	<circle id="XMLID_38_" opacity="0.12" fill="#C6C6C6" cx="18.3" cy="78" r="3.3"/>
	<g id="XMLID_25_" opacity="0.12">
		<rect id="XMLID_37_" x="18.1" y="63.4" fill="#C6C6C6" width="0.4" height="14.6"/>
		
			<rect id="XMLID_36_" x="7.4" y="71.5" transform="matrix(0.5 0.866 -0.866 0.5 69.4329 23.1445)" fill="#C6C6C6" width="14.6" height="0.4"/>
		
			<rect id="XMLID_35_" x="4.7" y="74.2" transform="matrix(0.866 0.5 -0.5 0.866 38.799 3.9692)" fill="#C6C6C6" width="14.6" height="0.4"/>
		<rect id="XMLID_34_" x="3.7" y="77.9" fill="#C6C6C6" width="14.6" height="0.4"/>
		
			<rect id="XMLID_33_" x="11.8" y="74.4" transform="matrix(0.4995 0.8663 -0.8663 0.4995 76.7845 30.5042)" fill="#C6C6C6" width="0.4" height="14.6"/>
		
			<rect id="XMLID_32_" x="14.5" y="77.1" transform="matrix(0.8664 0.4994 -0.4994 0.8664 44.0988 3.9475)" fill="#C6C6C6" width="0.4" height="14.6"/>
		<rect id="XMLID_31_" x="18.1" y="78" fill="#C6C6C6" width="0.4" height="14.6"/>
		
			<rect id="XMLID_30_" x="14.7" y="84.2" transform="matrix(0.5 0.866 -0.866 0.5 84.0747 23.1447)" fill="#C6C6C6" width="14.6" height="0.4"/>
		
			<rect id="XMLID_29_" x="17.4" y="81.5" transform="matrix(0.866 0.5 -0.5 0.866 44.1578 -1.3901)" fill="#C6C6C6" width="14.6" height="0.4"/>
		<rect id="XMLID_28_" x="18.3" y="77.9" fill="#C6C6C6" width="14.6" height="0.4"/>
		
			<rect id="XMLID_27_" x="24.5" y="67.1" transform="matrix(0.4995 0.8663 -0.8663 0.4995 76.7888 15.8552)" fill="#C6C6C6" width="0.4" height="14.6"/>
		
			<rect id="XMLID_26_" x="21.8" y="64.4" transform="matrix(0.8663 0.4996 -0.4996 0.8663 38.7623 -1.3985)" fill="#C6C6C6" width="0.4" height="14.6"/>
	</g>
	<path id="XMLID_22_" opacity="0.12" fill="#C6C6C6" d="M27.2,78c0-4.9-4-8.9-8.9-8.9c-4.9,0-8.9,4-8.9,8.9c0,4.9,4,8.9,8.9,8.9
		C23.2,87,27.2,83,27.2,78z M26.3,78c0,4.4-3.6,7.9-7.9,7.9c-4.4,0-7.9-3.6-7.9-7.9c0-4.4,3.6-7.9,7.9-7.9
		C22.7,70.1,26.3,73.7,26.3,78z"/>
	<circle id="XMLID_21_" opacity="0.12" fill="#EDEDED" cx="56.9" cy="78" r="14.6"/>
	<path id="XMLID_18_" opacity="0.12" fill="#C6C6C6" d="M72.3,78c0-8.5-6.9-15.4-15.4-15.4S41.6,69.6,41.6,78
		c0,8.5,6.9,15.4,15.4,15.4S72.3,86.5,72.3,78z M70.8,78c0,7.7-6.2,13.9-13.9,13.9S43,85.7,43,78c0-7.7,6.2-13.9,13.9-13.9
		S70.8,70.4,70.8,78z"/>
	<circle id="XMLID_17_" opacity="0.12" fill="#C6C6C6" cx="56.9" cy="78" r="3.3"/>
	<g id="XMLID_4_" opacity="0.12">
		<rect id="XMLID_16_" x="56.7" y="63.4" fill="#C6C6C6" width="0.4" height="14.6"/>
		
			<rect id="XMLID_15_" x="45.9" y="71.5" transform="matrix(0.5 0.866 -0.866 0.5 88.7289 -10.2775)" fill="#C6C6C6" width="14.6" height="0.4"/>
		
			<rect id="XMLID_14_" x="43.3" y="74.2" transform="matrix(0.866 0.5 -0.5 0.866 43.9696 -15.3274)" fill="#C6C6C6" width="14.6" height="0.4"/>
		<rect id="XMLID_13_" x="42.3" y="77.9" fill="#C6C6C6" width="14.6" height="0.4"/>
		
			<rect id="XMLID_12_" x="50.4" y="74.4" transform="matrix(0.4995 0.8663 -0.8663 0.4995 96.1007 -2.9295)" fill="#C6C6C6" width="0.4" height="14.6"/>
		
			<rect id="XMLID_11_" x="53.1" y="77.1" transform="matrix(0.8663 0.4995 -0.4995 0.8663 49.2688 -15.325)" fill="#C6C6C6" width="0.4" height="14.6"/>
		<rect id="XMLID_10_" x="56.7" y="78" fill="#C6C6C6" width="0.4" height="14.6"/>
		
			<rect id="XMLID_9_" x="53.3" y="84.2" transform="matrix(0.5 0.866 -0.866 0.5 103.3709 -10.2774)" fill="#C6C6C6" width="14.6" height="0.4"/>
		
			<rect id="XMLID_8_" x="55.9" y="81.5" transform="matrix(0.866 0.5 -0.5 0.866 49.3283 -20.6866)" fill="#C6C6C6" width="14.6" height="0.4"/>
		<rect id="XMLID_7_" x="56.9" y="77.9" fill="#C6C6C6" width="14.6" height="0.4"/>
		
			<rect id="XMLID_6_" x="63.1" y="67.1" transform="matrix(0.4995 0.8663 -0.8663 0.4995 96.105 -17.5786)" fill="#C6C6C6" width="0.4" height="14.6"/>
		
			<rect id="XMLID_5_" x="60.4" y="64.4" transform="matrix(0.8662 0.4997 -0.4997 0.8662 43.9354 -20.6805)" fill="#C6C6C6" width="0.4" height="14.6"/>
	</g>
	<path id="XMLID_1_" opacity="0.12" fill="#C6C6C6" d="M65.8,78c0-4.9-4-8.9-8.9-8.9c-4.9,0-8.9,4-8.9,8.9c0,4.9,4,8.9,8.9,8.9
		C61.8,87,65.8,83,65.8,78z M64.9,78c0,4.4-3.6,7.9-7.9,7.9C52.6,86,49,82.4,49,78c0-4.4,3.6-7.9,7.9-7.9
		C61.3,70.1,64.9,73.7,64.9,78z"/>
</g>
</svg>
